<svg width="82" height="41" viewBox="0 0 82 41" fill="none" xmlns="http://www.w3.org/2000/svg">
<g filter="url(#filter0_d)">
<path id = 'my-signature' d="M37.4304 1C37.3977 3.01262 37.0999 4.94099 36.6595 6.91007C36.1166 9.33779 35.9447 11.8289 35.4584 14.2665C35.0177 16.4757 34.2687 18.5548 32.8769 20.4566C31.4805 22.3646 29.7924 23.883 27.9469 25.4646C26.3537 26.8298 24.689 27.5586 22.5866 28.1552C21.2167 28.544 19.0431 29.1689 17.7104 28.404C15.9992 27.4219 15.5011 25.7807 15.4874 24.0959C15.4787 23.014 15.3457 21.8335 15.595 20.7676C15.857 19.6475 16.5311 18.557 17.1905 17.5793C18.5549 15.5562 20.9 15.1895 23.232 16.2573C24.8359 16.9917 25.9029 18.3916 26.5127 19.8344C27.1161 21.2622 27.5034 22.8609 29.0763 23.7537C30.8234 24.7455 33.391 24.4821 35.0102 23.4738C37.8075 21.732 39.9052 18.9608 41.5178 16.3817C43.3557 13.4423 45.0262 10.2939 46.2685 7.1278C46.7711 5.84712 47.3413 4.57508 47.7565 3.27071C47.9769 2.57832 48.0497 1.66924 48.4736 1.03888C48.5074 0.988581 48.4984 2.29522 48.4736 2.50085C48.302 3.92582 48.0328 5.3349 47.7565 6.74676C47.0564 10.3235 45.6666 13.6712 43.8842 16.9494C42.4336 19.6173 40.7687 22.209 38.8825 24.6636C37.9085 25.931 37.0819 27.3102 35.9873 28.4974C35.8993 28.5927 35.0102 29.3309 35.0102 29.3217C35.0102 27.6331 36.0966 25.9666 36.8747 24.4536C37.8789 22.5008 39.3334 20.8496 40.8904 19.2123C41.6851 18.3766 42.7744 17.0567 44.0545 16.7628C45.1179 16.5186 46.681 16.445 47.2545 17.3849C48.0415 18.6745 47.9587 20.6529 47.9089 22.0585C47.8405 23.9855 47.2725 25.8645 47.2725 27.7975C47.2725 29.8865 48.8106 30.817 51.0193 31.4291C55.5564 32.6864 60.9709 31.6671 65.2804 30.3015C69.3912 28.9988 75.0434 26.9723 76.7538 23.0772C77.2529 21.9406 77.039 21.232 75.6872 20.6898C74.3508 20.1539 72.872 20.0155 71.4205 19.9278C68.7865 19.7686 66.1346 19.7924 63.4966 19.7411C54.8213 19.5725 46.264 18.6256 37.6814 17.5637C32.5865 16.9334 27.5059 16.2112 22.4074 15.6041C16.6144 14.9143 10.8272 14.643 5 14.2976" stroke="#124DA5" stroke-width="2" stroke-linecap="round"/>
</g>
<defs>
<filter id="filter0_d" x="-3.05176e-05" y="0" width="82.0004" height="40.9999" filterUnits="userSpaceOnUse" color-interpolation-filters="sRGB">
<feFlood flood-opacity="0" result="BackgroundImageFix"/>
<feColorMatrix in="SourceAlpha" type="matrix" values="0 0 0 0 0 0 0 0 0 0 0 0 0 0 0 0 0 0 127 0"/>
<feOffset dy="4"/>
<feGaussianBlur stdDeviation="2"/>
<feColorMatrix type="matrix" values="0 0 0 0 0 0 0 0 0 0 0 0 0 0 0 0 0 0 0.25 0"/>
<feBlend mode="normal" in2="BackgroundImageFix" result="effect1_dropShadow"/>
<feBlend mode="normal" in="SourceGraphic" in2="effect1_dropShadow" result="shape"/>
</filter>
</defs>
</svg>
