<svg width="82" height="42" viewBox="0 0 82 41" fill="none" xmlns="http://www.w3.org/2000/svg">
<g filter="url(#filter0_d)">
<path id="my-signature" d="M11.0015 1.35728C10.9868 2.40243 10.8527 3.40382 10.6543 4.42636C10.4096 5.68706 10.3322 6.98068 10.1131 8.24654C9.91457 9.39376 9.57713 10.4734 8.95011 11.461C8.32101 12.4518 7.56052 13.2403 6.72907 14.0616C6.01133 14.7706 5.26134 15.149 4.3142 15.4589C3.69701 15.6607 2.71777 15.9853 2.11739 15.5881C1.34646 15.0781 1.12206 14.2258 1.1159 13.3509C1.11194 12.789 1.05205 12.176 1.16436 11.6225C1.28238 11.0409 1.58609 10.4746 1.88317 9.96684C2.49786 8.91628 3.55432 8.72584 4.60495 9.28033C5.32753 9.6617 5.80822 10.3887 6.08295 11.1379C6.3548 11.8793 6.52926 12.7095 7.23789 13.1732C8.02501 13.6882 9.18171 13.5514 9.91121 13.0278C11.1714 12.1233 12.7735 10.8821 13.5 9.54282C14.328 8.0164 14.4403 6.64413 15 5C15.1953 4.42636 15.4666 3.21381 15.6536 2.53645C15.7529 2.1769 15.7857 1.70482 15.9767 1.37748C15.9919 1.35135 15.9878 2.02989 15.9767 2.13667C15.8994 2.87665 15.7781 3.60838 15.6536 4.34155C15.3382 6.19895 14.7121 7.93739 13.9091 9.63974C13.2556 11.0252 12.3498 12.0762 11.5 13.3509C11.0612 14.0091 10.7512 15.1368 10.3514 15.6365C10.3118 15.6861 9.91121 16.0694 9.91121 16.0646C9.91121 15.1878 10.4006 14.3224 10.7512 13.5367C11.2036 12.5226 11.8589 11.6651 12.5603 10.8149C12.9184 10.3809 13.4091 9.69548 13.9858 9.54282C14.4649 9.41601 15.9767 10.5 15.9767 10.5C16.3312 11.1697 17.146 11.7701 17.1235 12.5C17.0927 13.5007 15.9767 14.6328 15.9767 15.6365C15.9767 16.7214 16.1285 16.8411 17.1235 17.159C19.1676 17.8119 20.5585 17.2092 22.5 16.5C24.352 15.8235 27.9468 14.8446 28.7173 12.8219C28.9422 12.2316 28.8458 11.8637 28.2368 11.5821C27.6347 11.3038 26.9685 11.2319 26.3146 11.1864" stroke="black" stroke-linecap="round"/>

</svg>
